<svg xmlns="http://www.w3.org/2000/svg" version="1.1" xmlns:xlink="http://www.w3.org/1999/xlink" xmlns:svgjs="http://svgjs.com/svgjs" width="1440" height="560" preserveAspectRatio="none" viewBox="0 0 1440 560"><g mask="url(&quot;#SvgjsMask1006&quot;)" fill="none"><rect width="1440" height="560" x="0" y="0" fill="rgba(17, 1, 1, 1)"></rect><path d="M927.76 421.04L955.68 421.04L955.68 448.96L927.76 448.96z" fill="rgba(13, 186, 12, 1)"></path><path d="M674.65 425.46L713.36 425.46L713.36 459.05L674.65 459.05z" stroke="#e73635"></path><path d="M1084.9 437.67L1093.86 437.67L1093.86 446.63L1084.9 446.63z" stroke="rgba(5, 16, 132, 1)"></path><path d="M351.1 41.85a16.42 16.42 0 1 0-21.11 25.16z" stroke="rgba(13, 186, 12, 1)"></path><path d="M205.54 531.03 a46.2 46.2 0 1 0 92.4 0 a46.2 46.2 0 1 0 -92.4 0z" fill="rgba(186, 12, 179, 1)"></path><path d="M612.8 137.11a44.01 44.01 0 1 0-20.39 85.63z" stroke="#d3b714"></path><path d="M292.93 128.57a41.28 41.28 0 1 0-80.96-16.17z" stroke="rgba(186, 12, 179, 1)"></path><path d="M468.15 35.89 a35.29 35.29 0 1 0 70.58 0 a35.29 35.29 0 1 0 -70.58 0z" stroke="rgba(13, 186, 12, 1)"></path><path d="M523.49 414.89L535.89 414.89L535.89 421.82L523.49 421.82z" stroke="rgba(13, 186, 12, 1)"></path><path d="M1315.24 428.63L1347.3 428.63L1347.3 460.69L1315.24 460.69z" fill="#d3b714"></path><path d="M963.83 460.16L992.45 460.16L992.45 488.78L963.83 488.78z" fill="rgba(13, 186, 12, 1)"></path><path d="M738.92 234.92 a28.64 28.64 0 1 0 57.28 0 a28.64 28.64 0 1 0 -57.28 0z" fill="rgba(13, 186, 12, 1)"></path><path d="M392.5 365.83a0.17 0.17 0 1 0 0.17-0.29z" fill="rgba(186, 12, 179, 1)"></path><path d="M770.08 98.41L806.05 98.41L806.05 152.46L770.08 152.46z" stroke="rgba(5, 16, 132, 1)"></path><path d="M901.63 481.39 a41.6 41.6 0 1 0 83.2 0 a41.6 41.6 0 1 0 -83.2 0z" stroke="#e73635"></path><path d="M150.9 283.86 a12.68 12.68 0 1 0 25.36 0 a12.68 12.68 0 1 0 -25.36 0z" stroke="#d3b714"></path><path d="M754.45 130.51 a24.95 24.95 0 1 0 49.9 0 a24.95 24.95 0 1 0 -49.9 0z" stroke="#d3b714"></path><path d="M701.35 448.47L732.98 448.47L732.98 481.99L701.35 481.99z" stroke="rgba(5, 16, 132, 1)"></path><path d="M1429.47 85.59L1478.4 85.59L1478.4 110.34L1429.47 110.34z" fill="rgba(13, 186, 12, 1)"></path><path d="M950.54 168.14a34.22 34.22 0 1 0 64.8-22.04z" fill="rgba(5, 16, 132, 1)"></path><path d="M282.73 147.27a25.12 25.12 0 1 0-21.59 45.37z" fill="rgba(13, 186, 12, 1)"></path><path d="M444.7 336.22L474.57 336.22L474.57 366.09L444.7 366.09z" stroke="#e73635"></path><path d="M742.18-2.63a12.67 12.67 0 1 0-24.43 6.74z" stroke="#e73635"></path><path d="M439.29 472.45L442.39 472.45L442.39 475.55L439.29 475.55z" stroke="#e73635"></path><path d="M770.31 502.15a48.47 48.47 0 1 0 70.78-66.23z" fill="#e73635"></path><path d="M731.58 480.1 a25.74 25.74 0 1 0 51.48 0 a25.74 25.74 0 1 0 -51.48 0z" stroke="#e73635"></path><path d="M865.65 309.69L912.86 309.69L912.86 356.9L865.65 356.9z" stroke="rgba(186, 12, 179, 1)"></path><path d="M118.65 332.85a8.56 8.56 0 1 0-7.45-15.41z" stroke="rgba(5, 16, 132, 1)"></path><path d="M559.74 510.44L565.97 510.44L565.97 559.98L559.74 559.98z" stroke="rgba(186, 12, 179, 1)"></path><path d="M59.75 481.8L101.99 481.8L101.99 483.02L59.75 483.02z" stroke="rgba(5, 16, 132, 1)"></path><path d="M1185.32 335.25L1196.68 335.25L1196.68 342.28L1185.32 342.28z" stroke="#e73635"></path><path d="M622.6 311 a44.22 44.22 0 1 0 88.44 0 a44.22 44.22 0 1 0 -88.44 0z" fill="rgba(186, 12, 179, 1)"></path><path d="M1383.06 266.49 a49.73 49.73 0 1 0 99.46 0 a49.73 49.73 0 1 0 -99.46 0z" stroke="rgba(13, 186, 12, 1)"></path></g><defs><mask id="SvgjsMask1006"><rect width="1440" height="560" fill="#ffffff"></rect></mask></defs></svg>