<svg xmlns="http://www.w3.org/2000/svg" version="1.1" xmlns:xlink="http://www.w3.org/1999/xlink" xmlns:svgjs="http://svgjs.com/svgjs" width="1440" height="560" preserveAspectRatio="none" viewBox="0 0 1440 560"><g mask="url(&quot;#SvgjsMask1034&quot;)" fill="none"><rect width="1440" height="560" x="0" y="0" fill="rgba(31, 30, 50, 1)"></rect><path d="M899.12 121.77L914 121.77L914 175.88L899.12 175.88z" stroke="#d3b714"></path><path d="M1112.17 408.1L1121.61 408.1L1121.61 417.54L1112.17 417.54z" stroke="rgba(186, 12, 179, 1)"></path><path d="M239.21 263.38a50.61 50.61 0 1 0-42.38 91.92z" stroke="#e73635"></path><path d="M493.29 77.07L512.93 77.07L512.93 120.41L493.29 120.41z" stroke="rgba(5, 16, 132, 1)"></path><path d="M122.42 224.6L165.04 224.6L165.04 267.22L122.42 267.22z" fill="rgba(5, 16, 132, 1)"></path><path d="M927.79 18.17 a30.96 30.96 0 1 0 61.92 0 a30.96 30.96 0 1 0 -61.92 0z" stroke="#e73635"></path><path d="M322.06 174.43a38.74 38.74 0 1 0 77.48-1.12z" fill="rgba(5, 16, 132, 1)"></path><path d="M1015.19 258.96a17.93 17.93 0 1 0-20.83 29.18z" stroke="#d3b714"></path><path d="M1256.69 209.94L1299.52 209.94L1299.52 252.77L1256.69 252.77z" stroke="rgba(186, 12, 179, 1)"></path><path d="M1189.37 26.54L1238.99 26.54L1238.99 76.16L1189.37 76.16z" stroke="rgba(186, 12, 179, 1)"></path><path d="M882.53 526.92a3.02 3.02 0 1 0-0.87 5.98z" stroke="rgba(13, 186, 12, 1)"></path><path d="M1416.8 573.58a21.26 21.26 0 1 0-20.94-37.01z" fill="#e73635"></path><path d="M945.83 392.37L996.93 392.37L996.93 414.15L945.83 414.15z" fill="rgba(186, 12, 179, 1)"></path><path d="M742.36 43.61L771.66 43.61L771.66 70.03L742.36 70.03z" stroke="#d3b714"></path><path d="M605.93 387.63L657.17 387.63L657.17 399.01L605.93 399.01z" fill="rgba(13, 186, 12, 1)"></path><path d="M996.53 14.08L1033.77 14.08L1033.77 51.32L996.53 51.32z" stroke="rgba(5, 16, 132, 1)"></path><path d="M303.24 339.54L338.86 339.54L338.86 352.36L303.24 352.36z" fill="#e73635"></path><path d="M1217.75 85.78L1245.83 85.78L1245.83 113.86L1217.75 113.86z" fill="#d3b714"></path><path d="M1220.94 159.53L1259.46 159.53L1259.46 177.64L1220.94 177.64z" stroke="#d3b714"></path><path d="M623.77 286.02a19.54 19.54 0 1 0 13.2 36.78z" stroke="rgba(13, 186, 12, 1)"></path><path d="M91.85 225.36a45.96 45.96 0 1 0-16.09 90.5z" fill="rgba(186, 12, 179, 1)"></path><path d="M137.02 90.2 a33.37 33.37 0 1 0 66.74 0 a33.37 33.37 0 1 0 -66.74 0z" fill="#e73635"></path><path d="M1033.25 13.11L1071.9 13.11L1071.9 51.76L1033.25 51.76z" stroke="#e73635"></path><path d="M707.78 226.69L758.5 226.69L758.5 277.41L707.78 277.41z" fill="#e73635"></path><path d="M163.39 212.63a9.88 9.88 0 1 0-12.8-15.05z" stroke="rgba(186, 12, 179, 1)"></path><path d="M622.32 544.33L633.77 544.33L633.77 576.85L622.32 576.85z" stroke="#e73635"></path><path d="M403.19 475.62L407.86 475.62L407.86 480.29L403.19 480.29z" fill="rgba(186, 12, 179, 1)"></path><path d="M981.11 2.22 a51.06 51.06 0 1 0 102.12 0 a51.06 51.06 0 1 0 -102.12 0z" stroke="rgba(13, 186, 12, 1)"></path><path d="M190.15 416.87L231.14 416.87L231.14 443.31L190.15 443.31z" fill="rgba(186, 12, 179, 1)"></path><path d="M1280.71 76.36L1331.77 76.36L1331.77 95.79L1280.71 95.79z" fill="rgba(13, 186, 12, 1)"></path><path d="M765.79 185.89L769.9 185.89L769.9 190L765.79 190z" stroke="rgba(5, 16, 132, 1)"></path><path d="M479.61 143.77L517.85 143.77L517.85 171.47L479.61 171.47z" fill="rgba(186, 12, 179, 1)"></path><path d="M267.38 479.91L284.85 479.91L284.85 497.38L267.38 497.38z" fill="rgba(13, 186, 12, 1)"></path></g><defs><mask id="SvgjsMask1034"><rect width="1440" height="560" fill="#ffffff"></rect></mask></defs></svg>