<svg xmlns="http://www.w3.org/2000/svg" version="1.1" xmlns:xlink="http://www.w3.org/1999/xlink" xmlns:svgjs="http://svgjs.com/svgjs" width="1440" height="560" preserveAspectRatio="none" viewBox="0 0 1440 560"><g mask="url(&quot;#SvgjsMask1025&quot;)" fill="none"><rect width="1440" height="560" x="0" y="0" fill="rgba(44, 34, 34, 1)"></rect><path d="M726.05 35.88 a39.98 39.98 0 1 0 79.96 0 a39.98 39.98 0 1 0 -79.96 0z" fill="rgba(5, 16, 132, 1)"></path><path d="M989.98 113.7L1026.62 113.7L1026.62 122.2L989.98 122.2z" fill="rgba(5, 16, 132, 1)"></path><path d="M91.02 531.99L106.78 531.99L106.78 551.75L91.02 551.75z" fill="#d3b714"></path><path d="M1419.53 125.15L1475.05 125.15L1475.05 180.67L1419.53 180.67z" fill="rgba(13, 186, 12, 1)"></path><path d="M962.91 375.5L990.51 375.5L990.51 409.35L962.91 409.35z" stroke="rgba(13, 186, 12, 1)"></path><path d="M27.7 79.02L39.34 79.02L39.34 112.13L27.7 112.13z" stroke="#e73635"></path><path d="M1310.39 93.51a47.92 47.92 0 1 0-57.04 77.02z" stroke="#d3b714"></path><path d="M1041.57 168.02a36.47 36.47 0 1 0-25.34 68.4z" stroke="rgba(13, 186, 12, 1)"></path><path d="M613.6 467.08a42.4 42.4 0 1 0-70.16-47.63z" fill="rgba(5, 16, 132, 1)"></path><path d="M564.37 413.55L586.38 413.55L586.38 435.56L564.37 435.56z" stroke="rgba(186, 12, 179, 1)"></path><path d="M679.12 383.88L686.88 383.88L686.88 391.64L679.12 391.64z" stroke="#d3b714"></path><path d="M863.34 34.67L909.72 34.67L909.72 81.05L863.34 81.05z" fill="rgba(13, 186, 12, 1)"></path><path d="M-22.42 72.03 a43.99 43.99 0 1 0 87.98 0 a43.99 43.99 0 1 0 -87.98 0z" stroke="#d3b714"></path><path d="M1108.56 474.04L1142.25 474.04L1142.25 491.71L1108.56 491.71z" stroke="#d3b714"></path><path d="M516.01 310.54a33.57 33.57 0 1 0-22.3 63.32z" fill="#d3b714"></path><path d="M722.22 439.52a42.41 42.41 0 1 0-60.05-59.9z" fill="rgba(5, 16, 132, 1)"></path><path d="M580.65 275.82L611.89 275.82L611.89 304.8L580.65 304.8z" stroke="rgba(186, 12, 179, 1)"></path><path d="M783.97 31.57 a40.56 40.56 0 1 0 81.12 0 a40.56 40.56 0 1 0 -81.12 0z" fill="#e73635"></path><path d="M963.23 425.07L985.03 425.07L985.03 434.91L963.23 434.91z" stroke="#d3b714"></path><path d="M1098.79 428.75 a53.47 53.47 0 1 0 106.94 0 a53.47 53.47 0 1 0 -106.94 0z" stroke="#d3b714"></path><path d="M824.24 409.48L848.43 409.48L848.43 433.67L824.24 433.67z" stroke="#e73635"></path><path d="M1259.53 295.59 a44 44 0 1 0 88 0 a44 44 0 1 0 -88 0z" fill="#e73635"></path><path d="M1454.82 511.39a55.71 55.71 0 1 0-111.13 7.97z" stroke="rgba(186, 12, 179, 1)"></path><path d="M1246.96 476.77a46.84 46.84 0 1 0 86.24-36.59z" stroke="#e73635"></path><path d="M396.1 69.68a44 44 0 1 0-13.69-86.93z" stroke="rgba(5, 16, 132, 1)"></path><path d="M131.94 544.83L164.86 544.83L164.86 577.75L131.94 577.75z" fill="#d3b714"></path><path d="M366.77 535.82 a46.56 46.56 0 1 0 93.12 0 a46.56 46.56 0 1 0 -93.12 0z" stroke="#e73635"></path><path d="M1211.54 361.38L1267.42 361.38L1267.42 417.26L1211.54 417.26z" stroke="#e73635"></path><path d="M1290.75 520.08L1302.4 520.08L1302.4 531.73L1290.75 531.73z" fill="rgba(186, 12, 179, 1)"></path><path d="M174.59 481.9 a20.88 20.88 0 1 0 41.76 0 a20.88 20.88 0 1 0 -41.76 0z" fill="#e73635"></path><path d="M653.41 525L698.09 525L698.09 564.18L653.41 564.18z" fill="#e73635"></path><path d="M638.34 82.9L684.09 82.9L684.09 115.55L638.34 115.55z" stroke="rgba(5, 16, 132, 1)"></path><path d="M15.25 355.33L70.54 355.33L70.54 410.62L15.25 410.62z" fill="rgba(13, 186, 12, 1)"></path></g><defs><mask id="SvgjsMask1025"><rect width="1440" height="560" fill="#ffffff"></rect></mask></defs></svg>