<svg xmlns="http://www.w3.org/2000/svg" version="1.1" xmlns:xlink="http://www.w3.org/1999/xlink" xmlns:svgjs="http://svgjs.com/svgjs" width="1440" height="560" preserveAspectRatio="none" viewBox="0 0 1440 560"><g mask="url(&quot;#SvgjsMask1045&quot;)" fill="none"><rect width="1440" height="560" x="0" y="0" fill="rgba(3, 74, 40, 1)"></rect><rect width="60" height="60" clip-path="url(&quot;#SvgjsClipPath1046&quot;)" x="271.69" y="331.03" fill="url(#SvgjsPattern1047)" transform="rotate(343.93, 301.69, 361.03)"></rect><rect width="121.19999999999999" height="121.19999999999999" clip-path="url(&quot;#SvgjsClipPath1048&quot;)" x="1054.22" y="90.45" fill="url(#SvgjsPattern1049)" transform="rotate(136.58, 1114.82, 151.05)"></rect><rect width="125.8" height="125.8" clip-path="url(&quot;#SvgjsClipPath1050&quot;)" x="795.96" y="234.11" fill="url(#SvgjsPattern1051)" transform="rotate(300.18, 858.86, 297.01)"></rect><path d="M1296.11 173.25a5.6 5.6 0 1 0 9.05-6.61 5.6 5.6 0 1 0-9.05 6.61zM1309.03 163.81a5.6 5.6 0 1 0 9.05-6.6 5.6 5.6 0 1 0-9.05 6.6zM1321.95 154.37a5.6 5.6 0 1 0 9.05-6.6 5.6 5.6 0 1 0-9.05 6.6zM1334.87 144.94a5.6 5.6 0 1 0 9.05-6.61 5.6 5.6 0 1 0-9.05 6.61zM1279.7 205.04a5.6 5.6 0 1 0 9.05-6.61 5.6 5.6 0 1 0-9.05 6.61zM1292.63 195.6a5.6 5.6 0 1 0 9.04-6.6 5.6 5.6 0 1 0-9.04 6.6zM1305.55 186.17a5.6 5.6 0 1 0 9.04-6.61 5.6 5.6 0 1 0-9.04 6.61zM1318.47 176.73a5.6 5.6 0 1 0 9.04-6.6 5.6 5.6 0 1 0-9.04 6.6z" stroke="#e73635" stroke-width="2.74"></path><path d="M975.68 172.51999999999998 L988.12 243.01L1016.8272731383695 172.83772686163047z" fill="#e73635"></path><path d="M530.56 300.38a5.6 5.6 0 1 0-11.11-1.38 5.6 5.6 0 1 0 11.11 1.38zM514.68 298.41a5.6 5.6 0 1 0-11.11-1.38 5.6 5.6 0 1 0 11.11 1.38zM498.8 296.44a5.6 5.6 0 1 0-11.11-1.37 5.6 5.6 0 1 0 11.11 1.37zM482.93 294.47a5.6 5.6 0 1 0-11.12-1.37 5.6 5.6 0 1 0 11.12 1.37zM564.29 288.44a5.6 5.6 0 1 0-11.12-1.38 5.6 5.6 0 1 0 11.12 1.38zM548.41 286.47a5.6 5.6 0 1 0-11.12-1.37 5.6 5.6 0 1 0 11.12 1.37zM532.53 284.5a5.6 5.6 0 1 0-11.12-1.37 5.6 5.6 0 1 0 11.12 1.37zM516.65 282.54a5.6 5.6 0 1 0-11.11-1.38 5.6 5.6 0 1 0 11.11 1.38z" stroke="#037b0b" stroke-width="1" stroke-dasharray="3, 2"></path><rect width="60" height="60" clip-path="url(&quot;#SvgjsClipPath1052&quot;)" x="1213.52" y="377.74" fill="url(#SvgjsPattern1053)" transform="rotate(263.81, 1243.52, 407.74)"></rect><rect width="119.2" height="119.2" clip-path="url(&quot;#SvgjsClipPath1054&quot;)" x="891.62" y="105.82" fill="url(#SvgjsPattern1055)" transform="rotate(166.01, 951.22, 165.42)"></rect><rect width="120" height="120" clip-path="url(&quot;#SvgjsClipPath1056&quot;)" x="150.98" y="163.14" fill="url(#SvgjsPattern1057)" transform="rotate(62.71, 210.98, 223.14)"></rect><rect width="85.8" height="85.8" clip-path="url(&quot;#SvgjsClipPath1058&quot;)" x="365.56" y="-34.23" fill="url(#SvgjsPattern1059)" transform="rotate(60.64, 408.46, 8.67)"></rect><circle r="63.512780010942954" cx="1260.51" cy="123.58" fill="#d3b714"></circle><path d="M1104.98 182.96a5.6 5.6 0 1 0 8.93-6.77 5.6 5.6 0 1 0-8.93 6.77zM1117.73 173.29a5.6 5.6 0 1 0 8.93-6.76 5.6 5.6 0 1 0-8.93 6.76zM1130.48 163.63a5.6 5.6 0 1 0 8.93-6.76 5.6 5.6 0 1 0-8.93 6.76zM1143.24 153.97a5.6 5.6 0 1 0 8.92-6.76 5.6 5.6 0 1 0-8.92 6.76zM1089.14 215.03a5.6 5.6 0 1 0 8.92-6.76 5.6 5.6 0 1 0-8.92 6.76zM1101.89 205.37a5.6 5.6 0 1 0 8.93-6.76 5.6 5.6 0 1 0-8.93 6.76zM1114.64 195.71a5.6 5.6 0 1 0 8.93-6.76 5.6 5.6 0 1 0-8.93 6.76zM1127.39 186.05a5.6 5.6 0 1 0 8.93-6.77 5.6 5.6 0 1 0-8.93 6.77z" fill="#037b0b"></path></g><defs><mask id="SvgjsMask1045"><rect width="1440" height="560" fill="#ffffff"></rect></mask><pattern x="0" y="0" width="6" height="6" patternUnits="userSpaceOnUse" id="SvgjsPattern1047"><path d="M3 1L3 5M1 3L5 3" stroke="#037b0b" fill="none" stroke-width="1"></path></pattern><clipPath id="SvgjsClipPath1046"><circle r="15" cx="301.69" cy="361.03"></circle></clipPath><pattern x="0" y="0" width="12.12" height="12.12" patternUnits="userSpaceOnUse" id="SvgjsPattern1049"><path d="M0 12.12L6.06 0L12.12 12.12" stroke="#e73635" fill="none"></path></pattern><clipPath id="SvgjsClipPath1048"><circle r="30.299999999999997" cx="1114.82" cy="151.05"></circle></clipPath><pattern x="0" y="0" width="12.58" height="12.58" patternUnits="userSpaceOnUse" id="SvgjsPattern1051"><path d="M0 12.58L6.29 0L12.58 12.58" stroke="#d3b714" fill="none"></path></pattern><clipPath id="SvgjsClipPath1050"><circle r="31.45" cx="858.86" cy="297.01"></circle></clipPath><pattern x="0" y="0" width="6" height="6" patternUnits="userSpaceOnUse" id="SvgjsPattern1053"><path d="M0 6L3 0L6 6" stroke="#d3b714" fill="none"></path></pattern><clipPath id="SvgjsClipPath1052"><circle r="15" cx="1243.52" cy="407.74"></circle></clipPath><pattern x="0" y="0" width="11.92" height="11.92" patternUnits="userSpaceOnUse" id="SvgjsPattern1055"><path d="M5.96 1L5.96 10.92M1 5.96L10.92 5.96" stroke="#037b0b" fill="none" stroke-width="1.73"></path></pattern><clipPath id="SvgjsClipPath1054"><circle r="29.8" cx="951.22" cy="165.42"></circle></clipPath><pattern x="0" y="0" width="6" height="6" patternUnits="userSpaceOnUse" id="SvgjsPattern1057"><path d="M0 6L3 0L6 6" stroke="#037b0b" fill="none"></path></pattern><clipPath id="SvgjsClipPath1056"><circle r="30" cx="210.98" cy="223.14"></circle></clipPath><pattern x="0" y="0" width="8.58" height="8.58" patternUnits="userSpaceOnUse" id="SvgjsPattern1059"><path d="M4.29 1L4.29 7.58M1 4.29L7.58 4.29" stroke="#d3b714" fill="none" stroke-width="2.08"></path></pattern><clipPath id="SvgjsClipPath1058"><circle r="21.45" cx="408.46" cy="8.67"></circle></clipPath></defs></svg>