<svg xmlns="http://www.w3.org/2000/svg" version="1.1" xmlns:xlink="http://www.w3.org/1999/xlink" xmlns:svgjs="http://svgjs.com/svgjs" width="1440" height="560" preserveAspectRatio="none" viewBox="0 0 1440 560"><g mask="url(&quot;#SvgjsMask1015&quot;)" fill="none"><rect width="1440" height="560" x="0" y="0" fill="rgba(0, 0, 0, 1)"></rect><circle r="57.77920536832908" cx="665.31" cy="529.01" stroke="#d3b714" stroke-width="1" stroke-dasharray="3, 3"></circle><rect width="254.88" height="254.88" clip-path="url(&quot;#SvgjsClipPath1016&quot;)" x="872.44" y="0.55" fill="url(#SvgjsPattern1017)" transform="rotate(291.02, 999.88, 127.99)"></rect><rect width="336" height="336" clip-path="url(&quot;#SvgjsClipPath1018&quot;)" x="700.35" y="263.41" fill="url(#SvgjsPattern1019)" transform="rotate(357.79, 868.35, 431.41)"></rect><rect width="179.04" height="179.04" clip-path="url(&quot;#SvgjsClipPath1020&quot;)" x="65.45" y="32.08" fill="url(#SvgjsPattern1021)" transform="rotate(126.66, 154.97, 121.6)"></rect><circle r="52.892818418563884" cx="1228.04" cy="216.67" stroke="#037b0b" stroke-width="2.95" stroke-dasharray="2, 2"></circle><rect width="265.68" height="265.68" clip-path="url(&quot;#SvgjsClipPath1022&quot;)" x="414.75" y="292.11" fill="url(#SvgjsPattern1023)" transform="rotate(238.42, 547.59, 424.95)"></rect><rect width="252" height="252" clip-path="url(&quot;#SvgjsClipPath1024&quot;)" x="486.26" y="407.97" fill="url(#SvgjsPattern1025)" transform="rotate(204.21, 612.26, 533.97)"></rect><circle r="46.666666666666664" cx="957.39" cy="50.31" stroke="#d3b714" stroke-width="1.45" stroke-dasharray="4, 4"></circle><path d="M132.21 421.42 L218.88 500.07000000000005L125.70597011172188 510.58402988827817z" stroke="#d3b714" stroke-width="1.02" stroke-dasharray="2, 2"></path><circle r="58.156923550217826" cx="366.71" cy="188.28" stroke="#037b0b" stroke-width="1" stroke-dasharray="3, 3"></circle><rect width="60" height="60" clip-path="url(&quot;#SvgjsClipPath1026&quot;)" x="317.98" y="316.59" fill="url(#SvgjsPattern1027)" transform="rotate(57.95, 347.98, 346.59)"></rect><rect width="218.88" height="218.88" clip-path="url(&quot;#SvgjsClipPath1028&quot;)" x="-7.59" y="39.07" fill="url(#SvgjsPattern1029)" transform="rotate(286.91, 101.85, 148.51)"></rect></g><defs><mask id="SvgjsMask1015"><rect width="1440" height="560" fill="#ffffff"></rect></mask><pattern x="0" y="0" width="7.08" height="7.08" patternUnits="userSpaceOnUse" id="SvgjsPattern1017"><path d="M0 7.08L3.54 0L7.08 7.08" stroke="#d3b714" fill="none"></path></pattern><clipPath id="SvgjsClipPath1016"><circle r="63.72" cx="999.88" cy="127.99"></circle></clipPath><pattern x="0" y="0" width="6" height="6" patternUnits="userSpaceOnUse" id="SvgjsPattern1019"><path d="M3 1L3 5M1 3L5 3" stroke="#d3b714" fill="none" stroke-width="1.58"></path></pattern><clipPath id="SvgjsClipPath1018"><circle r="84" cx="868.35" cy="431.41"></circle></clipPath><pattern x="0" y="0" width="179.04" height="7.46" patternUnits="userSpaceOnUse" id="SvgjsPattern1021"><rect width="179.04" height="3.73" x="0" y="0" fill="#e73635"></rect><rect width="179.04" height="3.73" x="0" y="3.73" fill="rgba(0, 0, 0, 0)"></rect></pattern><clipPath id="SvgjsClipPath1020"><circle r="44.76" cx="154.97" cy="121.6"></circle></clipPath><pattern x="0" y="0" width="7.38" height="7.38" patternUnits="userSpaceOnUse" id="SvgjsPattern1023"><path d="M3.69 1L3.69 6.38M1 3.69L6.38 3.69" stroke="#e73635" fill="none" stroke-width="1"></path></pattern><clipPath id="SvgjsClipPath1022"><circle r="66.42" cx="547.59" cy="424.95"></circle></clipPath><pattern x="0" y="0" width="6" height="6" patternUnits="userSpaceOnUse" id="SvgjsPattern1025"><path d="M3 1L3 5M1 3L5 3" stroke="#e73635" fill="none" stroke-width="1"></path></pattern><clipPath id="SvgjsClipPath1024"><circle r="63" cx="612.26" cy="533.97"></circle></clipPath><pattern x="0" y="0" width="60" height="6" patternUnits="userSpaceOnUse" id="SvgjsPattern1027"><rect width="60" height="3" x="0" y="0" fill="#e73635"></rect><rect width="60" height="3" x="0" y="3" fill="rgba(0, 0, 0, 0)"></rect></pattern><clipPath id="SvgjsClipPath1026"><circle r="15" cx="347.98" cy="346.59"></circle></clipPath><pattern x="0" y="0" width="218.88" height="9.12" patternUnits="userSpaceOnUse" id="SvgjsPattern1029"><rect width="218.88" height="4.56" x="0" y="0" fill="#d3b714"></rect><rect width="218.88" height="4.56" x="0" y="4.56" fill="rgba(0, 0, 0, 0)"></rect></pattern><clipPath id="SvgjsClipPath1028"><circle r="54.72" cx="101.85" cy="148.51"></circle></clipPath></defs></svg>