<svg xmlns="http://www.w3.org/2000/svg" version="1.1" xmlns:xlink="http://www.w3.org/1999/xlink" xmlns:svgjs="http://svgjs.com/svgjs" width="1440" height="560" preserveAspectRatio="none" viewBox="0 0 1440 560"><g mask="url(&quot;#SvgjsMask1147&quot;)" fill="none"><rect width="1440" height="560" x="0" y="0" fill="rgba(35, 10, 42, 1)"></rect><path d="M1170.39 554.3a5.6 5.6 0 1 0 3.5-10.64 5.6 5.6 0 1 0-3.5 10.64zM1175.39 539.1a5.6 5.6 0 1 0 3.5-10.63 5.6 5.6 0 1 0-3.5 10.63zM1180.4 523.91a5.6 5.6 0 1 0 3.5-10.64 5.6 5.6 0 1 0-3.5 10.64zM1185.4 508.71a5.6 5.6 0 1 0 3.51-10.64 5.6 5.6 0 1 0-3.51 10.64z" fill="#e73635"></path><path d="M290.68 440.64L288.51 428.02 300.35 423.14 298.18 410.52 310.02 405.63 307.85 393.01 319.69 388.13M297.68 444.51L295.51 431.89 307.35 427.01 305.18 414.39 317.02 409.5 314.86 396.88 326.69 392M304.68 448.38L302.52 435.76 314.35 430.88 312.19 418.25 324.03 413.37 321.86 400.75 333.7 395.86" stroke="rgba(125, 27, 184, 1)" stroke-width="1.6" stroke-dasharray="3, 3"></path><rect width="84" height="84" clip-path="url(&quot;#SvgjsClipPath1148&quot;)" x="643.92" y="228.28" fill="url(#SvgjsPattern1149)" transform="rotate(348.29, 685.92, 270.28)"></rect><circle r="46.666666666666664" cx="1277.47" cy="446.5" stroke="#e73635" stroke-width="1.19" stroke-dasharray="3, 2"></circle><circle r="48.10921817720358" cx="1009.09" cy="220.19" fill="#d3b714"></circle><path d="M1274.96 224.12a5.6 5.6 0 1 0-7.93-7.92 5.6 5.6 0 1 0 7.93 7.92zM1263.64 212.81a5.6 5.6 0 1 0-7.93-7.91 5.6 5.6 0 1 0 7.93 7.91zM1252.32 201.5a5.6 5.6 0 1 0-7.93-7.91 5.6 5.6 0 1 0 7.93 7.91zM1240.99 190.2a5.6 5.6 0 1 0-7.92-7.92 5.6 5.6 0 1 0 7.92 7.92zM1308.91 235.41a5.6 5.6 0 1 0-7.93-7.92 5.6 5.6 0 1 0 7.93 7.92zM1297.59 224.1a5.6 5.6 0 1 0-7.93-7.91 5.6 5.6 0 1 0 7.93 7.91zM1286.26 212.79a5.6 5.6 0 1 0-7.92-7.91 5.6 5.6 0 1 0 7.92 7.91zM1274.94 201.49a5.6 5.6 0 1 0-7.92-7.92 5.6 5.6 0 1 0 7.92 7.92zM1342.86 246.7a5.6 5.6 0 1 0-7.93-7.92 5.6 5.6 0 1 0 7.93 7.92zM1331.54 235.39a5.6 5.6 0 1 0-7.93-7.91 5.6 5.6 0 1 0 7.93 7.91zM1320.21 224.08a5.6 5.6 0 1 0-7.92-7.91 5.6 5.6 0 1 0 7.92 7.91zM1308.89 212.78a5.6 5.6 0 1 0-7.92-7.92 5.6 5.6 0 1 0 7.92 7.92z" fill="#e73635"></path><path d="M97.45 535.6L108.73 529.53 117.13 539.2 128.41 533.14 136.8 542.81 148.08 536.74 156.47 546.42M96.01 543.47L107.29 537.4 115.68 547.07 126.96 541.01 135.36 550.68 146.64 544.61 155.03 554.29" stroke="#e73635" stroke-width="1.58"></path><path d="M103.67 378.09a5.6 5.6 0 1 0-10.49 3.92 5.6 5.6 0 1 0 10.49-3.92zM88.68 383.69a5.6 5.6 0 1 0-10.49 3.92 5.6 5.6 0 1 0 10.49-3.92zM73.7 389.29a5.6 5.6 0 1 0-10.5 3.92 5.6 5.6 0 1 0 10.5-3.92zM58.71 394.89a5.6 5.6 0 1 0-10.49 3.92 5.6 5.6 0 1 0 10.49-3.92z" fill="#e73635"></path><rect width="372.4" height="372.4" clip-path="url(&quot;#SvgjsClipPath1150&quot;)" x="844" y="-133.36" fill="url(#SvgjsPattern1151)" transform="rotate(175.23, 1030.2, 52.84)"></rect><path d="M399.61 76.42a5.6 5.6 0 1 0-6.13-9.37 5.6 5.6 0 1 0 6.13 9.37zM390.84 63.04a5.6 5.6 0 1 0-6.13-9.37 5.6 5.6 0 1 0 6.13 9.37zM382.07 49.65a5.6 5.6 0 1 0-6.14-9.36 5.6 5.6 0 1 0 6.14 9.36zM373.3 36.27a5.6 5.6 0 1 0-6.14-9.37 5.6 5.6 0 1 0 6.14 9.37zM430.54 94.41a5.6 5.6 0 1 0-6.14-9.37 5.6 5.6 0 1 0 6.14 9.37zM421.77 81.03a5.6 5.6 0 1 0-6.14-9.37 5.6 5.6 0 1 0 6.14 9.37zM413 67.65a5.6 5.6 0 1 0-6.14-9.37 5.6 5.6 0 1 0 6.14 9.37zM404.23 54.27a5.6 5.6 0 1 0-6.14-9.37 5.6 5.6 0 1 0 6.14 9.37zM461.46 112.41a5.6 5.6 0 1 0-6.14-9.37 5.6 5.6 0 1 0 6.14 9.37zM452.69 99.02a5.6 5.6 0 1 0-6.14-9.36 5.6 5.6 0 1 0 6.14 9.36zM443.92 85.64a5.6 5.6 0 1 0-6.14-9.37 5.6 5.6 0 1 0 6.14 9.37zM435.15 72.26a5.6 5.6 0 1 0-6.14-9.37 5.6 5.6 0 1 0 6.14 9.37z" fill="rgba(125, 27, 184, 1)"></path><rect width="306.88" height="306.88" clip-path="url(&quot;#SvgjsClipPath1152&quot;)" x="918.56" y="243.63" fill="url(#SvgjsPattern1153)" transform="rotate(67.36, 1072, 397.07)"></rect><path d="M1501.06 509.67999999999995 L1559.9299999999998 524.25L1556.9295547143806 490.53044528561907z" stroke="rgba(125, 27, 184, 1)" stroke-width="1.53" stroke-dasharray="3, 2"></path></g><defs><mask id="SvgjsMask1147"><rect width="1440" height="560" fill="#ffffff"></rect></mask><pattern x="0" y="0" width="6" height="6" patternUnits="userSpaceOnUse" id="SvgjsPattern1149"><path d="M3 1L3 5M1 3L5 3" stroke="#d3b714" fill="none" stroke-width="1"></path></pattern><clipPath id="SvgjsClipPath1148"><circle r="21" cx="685.92" cy="270.28"></circle></clipPath><pattern x="0" y="0" width="372.4" height="9.8" patternUnits="userSpaceOnUse" id="SvgjsPattern1151"><rect width="372.4" height="4.9" x="0" y="0" fill="#d3b714"></rect><rect width="372.4" height="4.9" x="0" y="4.9" fill="rgba(0, 0, 0, 0)"></rect></pattern><clipPath id="SvgjsClipPath1150"><circle r="93.1" cx="1030.2" cy="52.84"></circle></clipPath><pattern x="0" y="0" width="306.88" height="10.96" patternUnits="userSpaceOnUse" id="SvgjsPattern1153"><rect width="306.88" height="5.48" x="0" y="0" fill="rgba(125, 27, 184, 1)"></rect><rect width="306.88" height="5.48" x="0" y="5.48" fill="rgba(0, 0, 0, 0)"></rect></pattern><clipPath id="SvgjsClipPath1152"><circle r="76.72" cx="1072" cy="397.07"></circle></clipPath></defs></svg>