<?xml version="1.0" encoding="UTF-8" standalone="no"?>
<svg
   xmlns:dc="http://purl.org/dc/elements/1.1/"
   xmlns:cc="http://creativecommons.org/ns#"
   xmlns:rdf="http://www.w3.org/1999/02/22-rdf-syntax-ns#"
   xmlns:svg="http://www.w3.org/2000/svg"
   xmlns="http://www.w3.org/2000/svg"
   xmlns:sodipodi="http://sodipodi.sourceforge.net/DTD/sodipodi-0.dtd"
   xmlns:inkscape="http://www.inkscape.org/namespaces/inkscape"
   width="10.583333mm"
   height="13.40639mm"
   viewBox="0 0 10.583333 13.40639"
   version="1.1"
   id="svg8"
   inkscape:version="1.0.1 (3bc2e813f5, 2020-09-07)"
   sodipodi:docname="clipboard.svg">
  <defs
     id="defs2" />
  <sodipodi:namedview
     id="base"
     pagecolor="#ffffff"
     bordercolor="#666666"
     borderopacity="1.0"
     inkscape:pageopacity="0.0"
     inkscape:pageshadow="2"
     inkscape:zoom="7.9195959"
     inkscape:cx="15.935733"
     inkscape:cy="33.81193"
     inkscape:document-units="mm"
     inkscape:current-layer="layer1"
     inkscape:document-rotation="0"
     showgrid="false"
     inkscape:window-width="1346"
     inkscape:window-height="860"
     inkscape:window-x="182"
     inkscape:window-y="0"
     inkscape:window-maximized="0"
     fit-margin-top="0"
     fit-margin-left="0"
     fit-margin-right="0"
     fit-margin-bottom="0" />
  <metadata
     id="metadata5">
    <rdf:RDF>
      <cc:Work
         rdf:about="">
        <dc:format>image/svg+xml</dc:format>
        <dc:type
           rdf:resource="http://purl.org/dc/dcmitype/StillImage" />
        <dc:title></dc:title>
      </cc:Work>
    </rdf:RDF>
  </metadata>
  <g
     inkscape:label="Layer 1"
     inkscape:groupmode="layer"
     id="layer1"
     transform="translate(-84.639466,-35.353002)">
    <g
       id="g901"
       transform="matrix(1.2502049,0,0,1.2502649,-21.177215,-8.8481769)">
      <path
         style="fill:#b9c2cb;stroke-width:0.00705556"
         d="m 88.814039,36.759021 c 0.0049,-0.002 0.01279,-0.002 0.01764,0 0.0049,0.002 8.82e-4,0.0036 -0.0088,0.0036 -0.0097,0 -0.01367,-0.0016 -0.0088,-0.0036 z m 0.09878,0 c 0.0049,-0.002 0.01279,-0.002 0.01764,0 0.0049,0.002 8.82e-4,0.0036 -0.0088,0.0036 -0.0097,0 -0.01367,-0.0016 -0.0088,-0.0036 z m -0.6039,-0.510382 c 0,-0.0097 0.0016,-0.01367 0.0036,-0.0088 0.002,0.0049 0.002,0.01279 0,0.01764 -0.002,0.0049 -0.0036,8.82e-4 -0.0036,-0.0088 z m 1.121834,0 c 0,-0.0097 0.0016,-0.01367 0.0036,-0.0088 0.002,0.0049 0.002,0.01279 0,0.01764 -0.002,0.0049 -0.0036,8.82e-4 -0.0036,-0.0088 z m -1.121834,-0.09878 c 0,-0.0097 0.0016,-0.01367 0.0036,-0.0088 0.002,0.0049 0.002,0.01279 0,0.01764 -0.002,0.0049 -0.0036,8.82e-4 -0.0036,-0.0088 z m 1.121834,0 c 0,-0.0097 0.0016,-0.01367 0.0036,-0.0088 0.002,0.0049 0.002,0.01279 0,0.01764 -0.002,0.0049 -0.0036,8.82e-4 -0.0036,-0.0088 z m -0.616712,-0.512673 c 0.0049,-0.002 0.01279,-0.002 0.01764,0 0.0049,0.002 8.82e-4,0.0036 -0.0088,0.0036 -0.0097,0 -0.01367,-0.0016 -0.0088,-0.0036 z m 0.09878,0 c 0.0049,-0.002 0.01279,-0.002 0.01764,0 0.0049,0.002 8.82e-4,0.0036 -0.0088,0.0036 -0.0097,0 -0.01367,-0.0016 -0.0088,-0.0036 z m -0.126563,-0.282367 c 0.0051,-0.002 0.01118,-0.0018 0.01352,5.57e-4 0.0023,0.0023 -0.0018,0.004 -0.0093,0.0037 -0.0082,-3.39e-4 -0.0099,-0.002 -0.0043,-0.0043 z m 0.162278,0 c 0.0051,-0.002 0.01118,-0.0018 0.01352,5.57e-4 0.0023,0.0023 -0.0018,0.004 -0.0093,0.0037 -0.0082,-3.39e-4 -0.0099,-0.002 -0.0043,-0.0043 z"
         id="path873" />
      <path
         style="fill:#afb9c4;stroke-width:0.00705556"
         d="m 88.807425,35.354819 c 0.0051,-0.002 0.01118,-0.0018 0.01352,5.57e-4 0.0023,0.0023 -0.0018,0.004 -0.0093,0.0037 -0.0082,-3.39e-4 -0.0099,-0.002 -0.0043,-0.0043 z m 0.119944,0 c 0.0051,-0.002 0.01118,-0.0018 0.01352,5.57e-4 0.0023,0.0023 -0.0018,0.004 -0.0093,0.0037 -0.0082,-3.39e-4 -0.0099,-0.002 -0.0043,-0.0043 z"
         id="path871" />
      <path
         style="fill:#f3c074;stroke-width:0.00705556"
         d="m 84.977471,45.781936 c -0.01527,-0.008 -0.0306,-0.02459 -0.04046,-0.04383 l -0.01588,-0.03096 v -4.710122 -4.710121 l 0.01588,-0.03096 c 0.03169,-0.0618 -0.05939,-0.0567 1.012081,-0.0567 h 0.947038 l 0.0023,0.474486 c 0.0022,0.470586 0.0024,0.474921 0.01835,0.527403 0.05686,0.186981 0.206979,0.335844 0.392696,0.389413 l 0.05644,0.01628 h 1.506361 1.506361 l 0.05644,-0.01628 c 0.185717,-0.05357 0.335835,-0.202432 0.392697,-0.389413 0.01596,-0.05248 0.01611,-0.05682 0.01835,-0.527403 l 0.0023,-0.474486 h 0.947038 c 1.071466,0 0.980393,-0.0051 1.012082,0.0567 l 0.01588,0.03096 v 4.710121 4.710122 l -0.01588,0.03096 c -0.0099,0.01923 -0.02518,0.03583 -0.04046,0.04383 -0.02371,0.01241 -0.162759,0.01287 -3.894776,0.01287 -3.732017,0 -3.87107,-4.58e-4 -3.894777,-0.01287 z m -0.338,-0.05475 c 3.39e-4,-0.0082 0.002,-0.0099 0.0043,-0.0043 0.002,0.0051 0.0018,0.01118 -5.57e-4,0.01352 -0.0023,0.0023 -0.004,-0.0018 -0.0037,-0.0093 z m 8.459611,0 c 3.39e-4,-0.0082 0.002,-0.0099 0.0043,-0.0043 0.002,0.0051 0.0018,0.01118 -5.57e-4,0.01352 -0.0023,0.0023 -0.004,-0.0018 -0.0037,-0.0093 z m -8.459611,-9.4615 c 3.39e-4,-0.0082 0.002,-0.0099 0.0043,-0.0043 0.002,0.0051 0.0018,0.01118 -5.57e-4,0.01352 -0.0023,0.0023 -0.004,-0.0018 -0.0037,-0.0093 z m 8.459611,0 c 3.39e-4,-0.0082 0.002,-0.0099 0.0043,-0.0043 0.002,0.0051 0.0018,0.01118 -5.57e-4,0.01352 -0.0023,0.0023 -0.004,-0.0018 -0.0037,-0.0093 z"
         id="path869" />
      <path
         style="fill:#959b9f;stroke-width:0.00705556"
         d="m 87.403369,37.605541 c 0.0051,-0.002 0.01118,-0.0018 0.01352,5.57e-4 0.0023,0.0023 -0.0018,0.004 -0.0093,0.0037 -0.0082,-3.38e-4 -0.0099,-0.002 -0.0043,-0.0043 z m 2.928056,0 c 0.0051,-0.002 0.01118,-0.0018 0.01352,5.57e-4 0.0023,0.0023 -0.0018,0.004 -0.0093,0.0037 -0.0082,-3.38e-4 -0.0099,-0.002 -0.0043,-0.0043 z m -3.272989,-0.16275 -0.01711,-0.0194 0.0194,0.0171 c 0.01067,0.0094 0.0194,0.01814 0.0194,0.0194 0,0.0055 -0.0057,10e-4 -0.0217,-0.01711 z m 3.620034,0.0018 c 0.0091,-0.0097 0.01816,-0.01764 0.0201,-0.01764 0.0019,0 -0.0039,0.0079 -0.01304,0.01764 -0.0091,0.0097 -0.01816,0.01764 -0.0201,0.01764 -0.0019,0 0.0039,-0.0079 0.01304,-0.01764 z m -3.781221,-0.34631 c 3.39e-4,-0.0082 0.002,-0.0099 0.0043,-0.0043 0.002,0.0051 0.0018,0.01118 -5.57e-4,0.01352 -0.0023,0.0023 -0.004,-0.0018 -0.0037,-0.0093 z m 3.944055,0 c 3.39e-4,-0.0082 0.002,-0.0099 0.0043,-0.0043 0.002,0.0051 0.0018,0.01118 -5.57e-4,0.01352 -0.0023,0.0023 -0.004,-0.0018 -0.0037,-0.0093 z m -2.343901,-0.473898 c -0.0088,-0.01119 -0.0085,-0.01144 0.0027,-0.0027 0.01175,0.0092 0.01549,0.01501 0.0097,0.01501 -0.0015,0 -0.007,-0.0056 -0.01235,-0.01235 z m 0.734678,0.0097 c 0,-0.0015 0.0056,-0.007 0.01235,-0.01235 0.01119,-0.0088 0.01144,-0.0085 0.0027,0.0027 -0.0092,0.01175 -0.01501,0.01549 -0.01501,0.0097 z m -0.791122,-0.06613 c -0.0088,-0.01119 -0.0085,-0.01144 0.0027,-0.0027 0.01175,0.0092 0.01549,0.01501 0.0097,0.01501 -0.0015,0 -0.007,-0.0056 -0.01235,-0.01235 z m 0.847567,0.0097 c 0,-0.0015 0.0056,-0.007 0.01235,-0.01235 0.01119,-0.0088 0.01144,-0.0085 0.0027,0.0027 -0.0092,0.01175 -0.01501,0.01549 -0.01501,0.0097 z m -0.853723,-0.740834 c 0,-0.0015 0.0056,-0.007 0.01235,-0.01235 0.01119,-0.0088 0.01144,-0.0085 0.0027,0.0027 -0.0092,0.01175 -0.01501,0.01549 -0.01501,0.0097 z m 0.859878,-0.0097 c -0.0088,-0.01119 -0.0085,-0.01144 0.0027,-0.0027 0.01175,0.0092 0.01549,0.01501 0.0097,0.01501 -0.0015,0 -0.007,-0.0056 -0.01235,-0.01235 z m -0.803433,-0.04676 c 0,-0.0015 0.0056,-0.007 0.01235,-0.01235 0.01119,-0.0088 0.01144,-0.0085 0.0027,0.0027 -0.0092,0.01175 -0.01501,0.01549 -0.01501,0.0097 z m 0.746989,-0.0097 c -0.0088,-0.01119 -0.0085,-0.01144 0.0027,-0.0027 0.0068,0.0053 0.01235,0.01088 0.01235,0.01235 0,0.0058 -0.0058,0.0021 -0.01501,-0.0097 z m -0.409646,-0.41584 c 0.0051,-0.002 0.01118,-0.0018 0.01352,5.57e-4 0.0023,0.0023 -0.0018,0.004 -0.0093,0.0037 -0.0082,-3.39e-4 -0.0099,-0.002 -0.0043,-0.0043 z m 0.07761,0 c 0.0051,-0.002 0.01118,-0.0018 0.01352,5.57e-4 0.0023,0.0023 -0.0018,0.004 -0.0093,0.0037 -0.0082,-3.39e-4 -0.0099,-0.002 -0.0043,-0.0043 z"
         id="path867" />
      <path
         style="fill:#c19552;stroke-width:0.00705556"
         d="m 84.956414,46.069166 c -0.02134,-0.0034 -0.06579,-0.01942 -0.09878,-0.03557 -0.09912,-0.04852 -0.168195,-0.131284 -0.202222,-0.24232 -0.01254,-0.04092 -0.01297,-0.201336 -0.01297,-4.794251 0,-4.592914 4.34e-4,-4.753333 0.01297,-4.79425 0.03406,-0.111151 0.103181,-0.193929 0.202222,-0.242188 0.03605,-0.01757 0.07826,-0.03206 0.105833,-0.03634 0.02912,-0.0045 0.390341,-0.0071 0.989542,-0.0072 l 0.94368,-5.4e-5 v 0.141112 0.141111 h -0.947318 c -1.071783,0 -0.980673,-0.0051 -1.012362,0.0567 l -0.01588,0.03096 v 4.710121 4.710122 l 0.01588,0.03096 c 0.0099,0.01923 0.02518,0.03583 0.04046,0.04383 0.02371,0.01241 0.16276,0.01287 3.894777,0.01287 3.732017,0 3.87107,-4.58e-4 3.894776,-0.01287 0.01528,-0.008 0.0306,-0.02459 0.04046,-0.04383 l 0.01588,-0.03096 v -4.710122 -4.710121 l -0.01588,-0.03096 c -0.03169,-0.0618 0.05942,-0.0567 -1.012362,-0.0567 h -0.947317 v -0.141077 -0.141112 l 0.943681,5.4e-5 c 0.5992,3.4e-5 0.960422,0.0027 0.989542,0.0072 0.02757,0.0043 0.06978,0.01877 0.105833,0.03634 0.09904,0.04826 0.168159,0.131038 0.202221,0.242189 0.01254,0.04092 0.01297,0.201335 0.01297,4.79425 0,4.592915 -4.37e-4,4.753333 -0.01297,4.79425 -0.03406,0.111151 -0.10318,0.19393 -0.202221,0.242188 -0.03605,0.01757 -0.07826,0.03206 -0.105833,0.03634 -0.05817,0.009 -7.768171,0.0084 -7.824612,-6.42e-4 z"
         id="path865" />
      <path
         style="fill:#758698;stroke-width:0.00705556"
         d="m 87.424095,37.605688 c 0.0049,-0.002 0.01279,-0.002 0.01764,0 0.0049,0.002 8.82e-4,0.0036 -0.0088,0.0036 -0.0097,0 -0.01367,-0.0016 -0.0088,-0.0036 z m 2.878667,0 c 0.0049,-0.002 0.01279,-0.002 0.01764,0 0.0049,0.002 8.81e-4,0.0036 -0.0088,0.0036 -0.0097,0 -0.01367,-0.0016 -0.0088,-0.0036 z m -3.404956,-0.531549 c 0,-0.0097 0.0016,-0.01367 0.0036,-0.0088 0.002,0.0049 0.002,0.01279 0,0.01764 -0.002,0.0049 -0.0036,8.82e-4 -0.0036,-0.0088 z m 3.944056,0 c 0,-0.0097 0.0016,-0.01367 0.0036,-0.0088 0.002,0.0049 0.002,0.01279 0,0.01764 -0.002,0.0049 -0.0036,8.82e-4 -0.0036,-0.0088 z m -2.569337,-1.471084 c 0.01317,-0.01358 0.02552,-0.02469 0.02746,-0.02469 0.0019,0 -0.0072,0.01111 -0.02041,0.02469 -0.01316,0.01358 -0.02552,0.0247 -0.02746,0.0247 -0.0019,0 0.0072,-0.01111 0.02041,-0.0247 z m 1.19201,-0.0018 -0.02431,-0.02646 0.02646,0.02432 c 0.02463,0.02263 0.0297,0.0286 0.02432,0.0286 -0.0012,0 -0.01309,-0.01191 -0.02646,-0.02646 z m -0.614777,-0.246436 c 0.0051,-0.002 0.01118,-0.0018 0.01352,5.57e-4 0.0023,0.0023 -0.0018,0.004 -0.0093,0.0037 -0.0082,-3.39e-4 -0.0099,-0.002 -0.0043,-0.0043 z m 0.03528,0 c 0.0051,-0.002 0.01118,-0.0018 0.01352,5.57e-4 0.0023,0.0023 -0.0018,0.004 -0.0093,0.0037 -0.0082,-3.39e-4 -0.0099,-0.002 -0.0043,-0.0043 z"
         id="path863" />
      <path
         style="fill:#65788e;stroke-width:0.00705556"
         d="m 87.397637,37.602834 c -0.25991,-0.02775 -0.465936,-0.23759 -0.493909,-0.50305 -0.0037,-0.0355 -0.0068,-0.315656 -0.0069,-0.623604 l -1.22e-4,-0.559153 h 0.592667 c 0.505193,0 0.592666,-0.0015 0.592666,-0.0099 0,-0.0055 0.01596,-0.04181 0.03545,-0.08077 0.105393,-0.210526 0.297272,-0.371735 0.51736,-0.434667 0.08772,-0.02508 0.14355,-0.03279 0.237408,-0.03279 0.09386,0 0.149687,0.0077 0.237407,0.03279 0.170268,0.04869 0.330786,0.161116 0.440868,0.308793 0.03984,0.05345 0.111947,0.186546 0.111947,0.206641 0,0.0085 0.08747,0.0099 0.592667,0.0099 h 0.592666 l -1.2e-4,0.559153 c -7e-5,0.307948 -0.0032,0.588108 -0.0069,0.623604 -0.02849,0.270384 -0.233157,0.475049 -0.503541,0.503541 -0.07835,0.0083 -2.862022,0.0078 -2.93959,-4.91e-4 z m 1.60594,-0.852964 c 0.209634,-0.05026 0.36903,-0.209657 0.419291,-0.419291 0.02694,-0.11235 0.01428,-0.256574 -0.03162,-0.360363 -0.05513,-0.124646 -0.165916,-0.235107 -0.291528,-0.290659 -0.135109,-0.05975 -0.320475,-0.05947 -0.456509,6.9e-4 -0.124646,0.05512 -0.235107,0.165915 -0.290658,0.291528 -0.05945,0.134429 -0.05945,0.320521 0,0.45495 0.05559,0.125711 0.166004,0.236399 0.290895,0.291632 0.103348,0.04571 0.2481,0.05837 0.360126,0.03151 z"
         id="path861" />
    </g>
    <path
       style="fill:#000000;stroke-width:0.00705556"
       id="path847"
       d="" />
  </g>
</svg>
